<?xml version="1.0" encoding="UTF-8" standalone="no"?>
<svg
   width="186.96001mm"
   height="144.4008mm"
   viewBox="0 0 186.96001 144.40081"
   version="1.1"
   id="svg89"
   sodipodi:docname="Keypad Maschbau Box.svg"
   inkscape:version="1.1.2 (b8e25be833, 2022-02-05)"
   xmlns:inkscape="http://www.inkscape.org/namespaces/inkscape"
   xmlns:sodipodi="http://sodipodi.sourceforge.net/DTD/sodipodi-0.dtd"
   xmlns="http://www.w3.org/2000/svg"
   xmlns:svg="http://www.w3.org/2000/svg"
   xmlns:rdf="http://www.w3.org/1999/02/22-rdf-syntax-ns#"
   xmlns:cc="http://creativecommons.org/ns#"
   xmlns:dc="http://purl.org/dc/elements/1.1/">
  <defs
     id="defs93" />
  <sodipodi:namedview
     id="namedview91"
     pagecolor="#ffffff"
     bordercolor="#666666"
     borderopacity="1.0"
     inkscape:pageshadow="2"
     inkscape:pageopacity="0.0"
     inkscape:pagecheckerboard="0"
     inkscape:document-units="mm"
     showgrid="false"
     fit-margin-top="2"
     fit-margin-left="2"
     fit-margin-bottom="2"
     fit-margin-right="2"
     inkscape:zoom="2.8665022"
     inkscape:cx="591.13857"
     inkscape:cy="433.97839"
     inkscape:window-width="1920"
     inkscape:window-height="1137"
     inkscape:window-x="-8"
     inkscape:window-y="-8"
     inkscape:window-maximized="1"
     inkscape:current-layer="svg89" />
  <!--
Keypad - Generator for keypads with mechanical switches.


Note that top layers use a different material thickness according to the top1_thickness and top2_thickness (if enabled).


Created with Boxes.py (https://festi.info/boxes.py)
Creation date: 2022-09-28 06:15:29
Command line (remove spaces between dashes): boxes Keypad - -FingerJoint_angle=90.0 - -FingerJoint_style=rectangular - -FingerJoint_surroundingspaces=1.0 - -FingerJoint_edge_width=1.0 - -FingerJoint_extra_length=0.0 - -FingerJoint_finger=2.0 - -FingerJoint_play=0.0 - -FingerJoint_space=2.0 - -FingerJoint_width=1.0 - -h=30 - -top1_thickness=4 - -top2_enable=0 - -top2_thickness=1.5 - -pcb_mount_enable=0 - -pcb_mount_enable=1 - -led_enable=0 - -diode_enable=0 - -cutout_type=castle - -columns_definition=2x5 - -thickness=3.0 - -format=svg - -tabs=0.0 - -debug=0 - -labels=0 - -labels=1 - -reference=100 - -inner_corners=loop - -burn=0.04
Url: http://festi.info/Keypad?FingerJoint_angle=90.0&FingerJoint_style=rectangular&FingerJoint_surroundingspaces=1.0&FingerJoint_edge_width=1.0&FingerJoint_extra_length=0.0&FingerJoint_finger=2.0&FingerJoint_play=0.0&FingerJoint_space=2.0&FingerJoint_width=1.0&h=30&top1_thickness=4&top2_enable=0&top2_thickness=1.5&pcb_mount_enable=0&pcb_mount_enable=1&led_enable=0&diode_enable=0&cutout_type=castle&columns_definition=2x5&thickness=3.0&format=svg&tabs=0.0&debug=0&labels=0&labels=1&reference=100&inner_corners=loop&burn=0.04&render=1
SettingsUrl: http://festi.info/Keypad?FingerJoint_angle=90.0&FingerJoint_style=rectangular&FingerJoint_surroundingspaces=1.0&FingerJoint_edge_width=1.0&FingerJoint_extra_length=0.0&FingerJoint_finger=2.0&FingerJoint_play=0.0&FingerJoint_space=2.0&FingerJoint_width=1.0&h=30&top1_thickness=4&top2_enable=0&top2_thickness=1.5&pcb_mount_enable=0&pcb_mount_enable=1&led_enable=0&diode_enable=0&cutout_type=castle&columns_definition=2x5&thickness=3.0&format=svg&tabs=0.0&debug=0&labels=0&labels=1&reference=100&inner_corners=loop&burn=0.04
-->
  <title
     id="title2">Keypad</title>
  <metadata
     id="metadata4">
    <rdf:RDF>
      <cc:Work>
        <dc:title>Box - Keypad</dc:title>
        <dc:date>2022-09-28 06:15:29</dc:date>
        <dc:source>http://festi.info/Keypad?FingerJoint_angle=90.0&amp;FingerJoint_style=rectangular&amp;FingerJoint_surroundingspaces=1.0&amp;FingerJoint_edge_width=1.0&amp;FingerJoint_extra_length=0.0&amp;FingerJoint_finger=2.0&amp;FingerJoint_play=0.0&amp;FingerJoint_space=2.0&amp;FingerJoint_width=1.0&amp;h=30&amp;top1_thickness=4&amp;top2_enable=0&amp;top2_thickness=1.5&amp;pcb_mount_enable=0&amp;pcb_mount_enable=1&amp;led_enable=0&amp;diode_enable=0&amp;cutout_type=castle&amp;columns_definition=2x5&amp;thickness=3.0&amp;format=svg&amp;tabs=0.0&amp;debug=0&amp;labels=0&amp;labels=1&amp;reference=100&amp;inner_corners=loop&amp;burn=0.04&amp;render=1</dc:source>
        <dc:description>Generator for keypads with mechanical switches.

Note that top layers use a different material thickness according to the top1_thickness and top2_thickness (if enabled).

Created with Boxes.py (https://festi.info/boxes.py)
Command line: boxes Keypad --FingerJoint_angle=90.0 --FingerJoint_style=rectangular --FingerJoint_surroundingspaces=1.0 --FingerJoint_edge_width=1.0 --FingerJoint_extra_length=0.0 --FingerJoint_finger=2.0 --FingerJoint_play=0.0 --FingerJoint_space=2.0 --FingerJoint_width=1.0 --h=30 --top1_thickness=4 --top2_enable=0 --top2_thickness=1.5 --pcb_mount_enable=0 --pcb_mount_enable=1 --led_enable=0 --diode_enable=0 --cutout_type=castle --columns_definition=2x5 --thickness=3.0 --format=svg --tabs=0.0 --debug=0 --labels=0 --labels=1 --reference=100 --inner_corners=loop --burn=0.04
Url: http://festi.info/Keypad?FingerJoint_angle=90.0&amp;FingerJoint_style=rectangular&amp;FingerJoint_surroundingspaces=1.0&amp;FingerJoint_edge_width=1.0&amp;FingerJoint_extra_length=0.0&amp;FingerJoint_finger=2.0&amp;FingerJoint_play=0.0&amp;FingerJoint_space=2.0&amp;FingerJoint_width=1.0&amp;h=30&amp;top1_thickness=4&amp;top2_enable=0&amp;top2_thickness=1.5&amp;pcb_mount_enable=0&amp;pcb_mount_enable=1&amp;led_enable=0&amp;diode_enable=0&amp;cutout_type=castle&amp;columns_definition=2x5&amp;thickness=3.0&amp;format=svg&amp;tabs=0.0&amp;debug=0&amp;labels=0&amp;labels=1&amp;reference=100&amp;inner_corners=loop&amp;burn=0.04&amp;render=1
SettingsUrl: http://festi.info/Keypad?FingerJoint_angle=90.0&amp;FingerJoint_style=rectangular&amp;FingerJoint_surroundingspaces=1.0&amp;FingerJoint_edge_width=1.0&amp;FingerJoint_extra_length=0.0&amp;FingerJoint_finger=2.0&amp;FingerJoint_play=0.0&amp;FingerJoint_space=2.0&amp;FingerJoint_width=1.0&amp;h=30&amp;top1_thickness=4&amp;top2_enable=0&amp;top2_thickness=1.5&amp;pcb_mount_enable=0&amp;pcb_mount_enable=1&amp;led_enable=0&amp;diode_enable=0&amp;cutout_type=castle&amp;columns_definition=2x5&amp;thickness=3.0&amp;format=svg&amp;tabs=0.0&amp;debug=0&amp;labels=0&amp;labels=1&amp;reference=100&amp;inner_corners=loop&amp;burn=0.04
</dc:description>
      </cc:Work>
    </rdf:RDF>
  </metadata>
  <g
     id="p-1"
     style="fill:none;stroke:#ff0000;stroke-width:0.1;stroke-linecap:round;stroke-linejoin:round;stroke-miterlimit:4;stroke-dasharray:none;stroke-opacity:1"
     transform="translate(-8.31,-101.52919)">
    <path
       d="m 19.9,212.8 h -2.96 c -0.04,0 0,0.04 0,0 v -2.92 c 0,-0.04 -0.04,0 0,0 h 5.92 c 0.04,0 0,-0.04 0,0 v 2.92 c 0,0.04 0.04,0 0,0 z"
       stroke="rgb(0,0,255)"
       stroke-width="0.08"
       id="path11"
       style="stroke:#ff0000;stroke-width:0.1;stroke-miterlimit:4;stroke-dasharray:none;stroke-opacity:1" />
    <path
       d="m 31.9,212.8 h -2.96 c -0.04,0 0,0.04 0,0 v -2.92 c 0,-0.04 -0.04,0 0,0 h 5.92 c 0.04,0 0,-0.04 0,0 v 2.92 c 0,0.04 0.04,0 0,0 z"
       stroke="rgb(0,0,255)"
       stroke-width="0.08"
       id="path13"
       style="stroke:#ff0000;stroke-width:0.1;stroke-miterlimit:4;stroke-dasharray:none;stroke-opacity:1" />
    <path
       d="m 120.9,209.88 h 2.96 c 0.04,0 0,-0.04 0,0 v 2.92 c 0,0.04 0.04,0 0,0 h -5.92 c -0.04,0 0,0.04 0,0 v -2.92 c 0,-0.04 -0.04,0 0,0 z"
       stroke="rgb(0,0,255)"
       stroke-width="0.08"
       id="path15"
       style="stroke:#ff0000;stroke-width:0.1;stroke-miterlimit:4;stroke-dasharray:none;stroke-opacity:1" />
    <path
       d="m 108.9,209.88 h 2.96 c 0.04,0 0,-0.04 0,0 v 2.92 c 0,0.04 0.04,0 0,0 h -5.92 c -0.04,0 0,0.04 0,0 v -2.92 c 0,-0.04 -0.04,0 0,0 z"
       stroke="rgb(0,0,255)"
       stroke-width="0.08"
       id="path17"
       style="stroke:#ff0000;stroke-width:0.1;stroke-miterlimit:4;stroke-dasharray:none;stroke-opacity:1" />
    <path
       d="m 13.4,243.88 h 6 c 0.022,0 0.04,-0.018 0.04,-0.04 v -6.96 c 0,-0.04 -0.04,0 0,0 h 5.92 c 0.04,0 0,-0.04 0,0 v 6.96 c 0,0.022 0.018,0.04 0.04,0.04 h 6 c 0.022,0 0.04,-0.018 0.04,-0.04 v -6.96 c 0,-0.04 -0.04,0 0,0 h 5.92 c 0.04,0 0,-0.04 0,0 v 6.96 c 0,0.022 0.018,0.04 0.04,0.04 h 6 c 0.022,0 0.04,-0.018 0.04,-0.04 v -6.96 c 0,-0.04 -0.04,0 0,0 h 5.92 c 0.04,0 0,-0.04 0,0 v 6.96 c 0,0.022 0.018,0.04 0.04,0.04 h 6 c 0.022,0 0.04,-0.018 0.04,-0.04 v -6.96 c 0,-0.04 -0.04,0 0,0 h 5.92 c 0.04,0 0,-0.04 0,0 v 6.96 c 0,0.022 0.018,0.04 0.04,0.04 h 6 c 0.022,0 0.04,-0.018 0.04,-0.04 v -6.96 c 0,-0.04 -0.04,0 0,0 h 5.92 c 0.04,0 0,-0.04 0,0 v 6.96 c 0,0.022 0.018,0.04 0.04,0.04 h 6 c 0.022,0 0.04,-0.018 0.04,-0.04 v -6.96 c 0,-0.04 -0.04,0 0,0 h 5.92 c 0.04,0 0,-0.04 0,0 v 6.96 c 0,0.022 0.018,0.04 0.04,0.04 h 6 c 0.022,0 0.04,-0.018 0.04,-0.04 v -6.96 c 0,-0.04 -0.04,0 0,0 h 5.92 c 0.04,0 0,-0.04 0,0 v 6.96 c 0,0.022 0.018,0.04 0.04,0.04 h 6 c 0.022,0 0.04,-0.018 0.04,-0.04 v -6.96 c 0,-0.04 -0.04,0 0,0 h 5.92 c 0.04,0 0,-0.04 0,0 v 6.96 c 0,0.022 0.018,0.04 0.04,0.04 h 6 c 0.022,0 0.04,-0.018 0.04,-0.04 v -6.96 c 0,-0.04 -0.04,0 0,0 h 5.92 c 0.04,0 0,-0.04 0,0 v 6.96 c 0,0.022 0.018,0.04 0.04,0.04 h 6 3 c 0.022,0 0.04,-0.018 0.04,-0.04 v -7 -6 c 0,-0.022 -0.018,-0.04 -0.04,-0.04 h -2.96 c -0.04,0 0,0.04 0,0 v -5.92 c 0,-0.04 -0.04,0 0,0 h 2.96 c 0.022,0 0.04,-0.018 0.04,-0.04 v -6 c 0,-0.022 -0.018,-0.04 -0.04,-0.04 h -2.96 c -0.04,0 0,0.04 0,0 v -5.92 c 0,-0.04 -0.04,0 0,0 h 2.96 c 0.022,0 0.04,-0.018 0.04,-0.04 v -6 -3 c 0,-0.022 -0.018,-0.04 -0.04,-0.04 h -3 -114 -3 c -0.022,0 -0.04,0.018 -0.04,0.04 v 3 6 c 0,0.022 0.018,0.04 0.04,0.04 h 2.96 c 0.04,0 0,-0.04 0,0 v 5.92 c 0,0.04 0.04,0 0,0 H 10.4 c -0.022,0 -0.04,0.018 -0.04,0.04 v 6 c 0,0.022 0.018,0.04 0.04,0.04 h 2.96 c 0.04,0 0,-0.04 0,0 v 5.92 c 0,0.04 0.04,0 0,0 H 10.4 c -0.022,0 -0.04,0.018 -0.04,0.04 v 6 7 c 0,0.022 0.018,0.04 0.04,0.04 z"
       stroke="rgb(0,0,0)"
       stroke-width="0.08"
       id="path19"
       style="stroke:#ff0000;stroke-width:0.1;stroke-miterlimit:4;stroke-dasharray:none;stroke-opacity:1" />
  </g>
  <g
     id="p-2"
     style="fill:none;stroke:#ff0000;stroke-width:0.1;stroke-linecap:round;stroke-linejoin:round;stroke-miterlimit:4;stroke-dasharray:none;stroke-opacity:1"
     transform="translate(-8.31,-101.52919)">
    <path
       d="m 141.48,212.8 h -2.96 c -0.04,0 0,0.04 0,0 v -2.92 c 0,-0.04 -0.04,0 0,0 h 5.92 c 0.04,0 0,-0.04 0,0 v 2.92 c 0,0.04 0.04,0 0,0 z"
       stroke="rgb(0,0,255)"
       stroke-width="0.08"
       id="path22"
       style="stroke:#ff0000;stroke-width:0.1;stroke-miterlimit:4;stroke-dasharray:none;stroke-opacity:1" />
    <path
       d="m 153.48,212.8 h -2.96 c -0.04,0 0,0.04 0,0 v -2.92 c 0,-0.04 -0.04,0 0,0 h 5.92 c 0.04,0 0,-0.04 0,0 v 2.92 c 0,0.04 0.04,0 0,0 z"
       stroke="rgb(0,0,255)"
       stroke-width="0.08"
       id="path24"
       style="stroke:#ff0000;stroke-width:0.1;stroke-miterlimit:4;stroke-dasharray:none;stroke-opacity:1" />
    <path
       d="m 183.68,209.88 h 2.96 c 0.04,0 0,-0.04 0,0 v 2.92 c 0,0.04 0.04,0 0,0 h -5.92 c -0.04,0 0,0.04 0,0 v -2.92 c 0,-0.04 -0.04,0 0,0 z"
       stroke="rgb(0,0,255)"
       stroke-width="0.08"
       id="path26"
       style="stroke:#ff0000;stroke-width:0.1;stroke-miterlimit:4;stroke-dasharray:none;stroke-opacity:1" />
    <path
       d="m 171.68,209.88 h 2.96 c 0.04,0 0,-0.04 0,0 v 2.92 c 0,0.04 0.04,0 0,0 h -5.92 c -0.04,0 0,0.04 0,0 v -2.92 c 0,-0.04 -0.04,0 0,0 z"
       stroke="rgb(0,0,255)"
       stroke-width="0.08"
       id="path28"
       style="stroke:#ff0000;stroke-width:0.1;stroke-miterlimit:4;stroke-dasharray:none;stroke-opacity:1" />
    <path
       d="m 134.98,243.88 h 6.6 c 0.022,0 0.04,-0.018 0.04,-0.04 v -6.96 c 0,-0.04 -0.04,0 0,0 h 5.92 c 0.04,0 0,-0.04 0,0 v 6.96 c 0,0.022 0.018,0.04 0.04,0.04 h 6 c 0.022,0 0.04,-0.018 0.04,-0.04 v -6.96 c 0,-0.04 -0.04,0 0,0 h 5.92 c 0.04,0 0,-0.04 0,0 v 6.96 c 0,0.022 0.018,0.04 0.04,0.04 h 6 c 0.022,0 0.04,-0.018 0.04,-0.04 v -6.96 c 0,-0.04 -0.04,0 0,0 h 5.92 c 0.04,0 0,-0.04 0,0 v 6.96 c 0,0.022 0.018,0.04 0.04,0.04 h 6 c 0.022,0 0.04,-0.018 0.04,-0.04 v -6.96 c 0,-0.04 -0.04,0 0,0 h 5.92 c 0.04,0 0,-0.04 0,0 v 6.96 c 0,0.022 0.018,0.04 0.04,0.04 h 6.6 c 0.022,0 0.04,-0.018 0.04,-0.04 v -7 -5.96 c 0,-0.04 -0.04,0 0,0 h 2.96 c 0.022,0 0.04,-0.018 0.04,-0.04 v -6 c 0,-0.022 -0.018,-0.04 -0.04,-0.04 h -2.96 c -0.04,0 0,0.04 0,0 v -5.92 c 0,-0.04 -0.04,0 0,0 h 2.96 c 0.022,0 0.04,-0.018 0.04,-0.04 v -6 c 0,-0.022 -0.018,-0.04 -0.04,-0.04 h -2.96 c -0.04,0 0,0.04 0,0 v -5.96 -3 c 0,-0.022 -0.018,-0.04 -0.04,-0.04 h -55.2 c -0.022,0 -0.04,0.018 -0.04,0.04 v 3 5.96 c 0,0.04 0.04,0 0,0 h -2.96 c -0.022,0 -0.04,0.018 -0.04,0.04 v 6 c 0,0.022 0.018,0.04 0.04,0.04 h 2.96 c 0.04,0 0,-0.04 0,0 v 5.92 c 0,0.04 0.04,0 0,0 h -2.96 c -0.022,0 -0.04,0.018 -0.04,0.04 v 6 c 0,0.022 0.018,0.04 0.04,0.04 h 2.96 c 0.04,0 0,-0.04 0,0 v 5.96 7 c 0,0.022 0.018,0.04 0.04,0.04 z"
       stroke="rgb(0,0,0)"
       stroke-width="0.08"
       id="path30"
       style="stroke:#ff0000;stroke-width:0.1;stroke-miterlimit:4;stroke-dasharray:none;stroke-opacity:1" />
  </g>
  <g
     id="p-3"
     style="fill:none;stroke:#ff0000;stroke-width:0.1;stroke-linecap:round;stroke-linejoin:round;stroke-miterlimit:4;stroke-dasharray:none;stroke-opacity:1"
     transform="translate(-8.3100002,-101.52919)">
    <path
       d="m 141.48,171.22 h -2.96 c -0.04,0 0,0.04 0,0 v -2.92 c 0,-0.04 -0.04,0 0,0 h 5.92 c 0.04,0 0,-0.04 0,0 v 2.92 c 0,0.04 0.04,0 0,0 z"
       stroke="rgb(0,0,255)"
       stroke-width="0.08"
       id="path33"
       style="stroke:#ff0000;stroke-width:0.1;stroke-miterlimit:4;stroke-dasharray:none;stroke-opacity:1" />
    <path
       d="m 153.48,171.22 h -2.96 c -0.04,0 0,0.04 0,0 v -2.92 c 0,-0.04 -0.04,0 0,0 h 5.92 c 0.04,0 0,-0.04 0,0 v 2.92 c 0,0.04 0.04,0 0,0 z"
       stroke="rgb(0,0,255)"
       stroke-width="0.08"
       id="path35"
       style="stroke:#ff0000;stroke-width:0.1;stroke-miterlimit:4;stroke-dasharray:none;stroke-opacity:1" />
    <path
       d="m 183.68,168.3 h 2.96 c 0.04,0 0,-0.04 0,0 v 2.92 c 0,0.04 0.04,0 0,0 h -5.92 c -0.04,0 0,0.04 0,0 v -2.92 c 0,-0.04 -0.04,0 0,0 z"
       stroke="rgb(0,0,255)"
       stroke-width="0.08"
       id="path37"
       style="stroke:#ff0000;stroke-width:0.1;stroke-miterlimit:4;stroke-dasharray:none;stroke-opacity:1" />
    <path
       d="m 171.68,168.3 h 2.96 c 0.04,0 0,-0.04 0,0 v 2.92 c 0,0.04 0.04,0 0,0 h -5.92 c -0.04,0 0,0.04 0,0 v -2.92 c 0,-0.04 -0.04,0 0,0 z"
       stroke="rgb(0,0,255)"
       stroke-width="0.08"
       id="path39"
       style="stroke:#ff0000;stroke-width:0.1;stroke-miterlimit:4;stroke-dasharray:none;stroke-opacity:1" />
    <path
       d="m 134.98,202.3 h 6.6 c 0.022,0 0.04,-0.018 0.04,-0.04 v -6.96 c 0,-0.04 -0.04,0 0,0 h 5.92 c 0.04,0 0,-0.04 0,0 v 6.96 c 0,0.022 0.018,0.04 0.04,0.04 h 6 c 0.022,0 0.04,-0.018 0.04,-0.04 v -6.96 c 0,-0.04 -0.04,0 0,0 h 5.92 c 0.04,0 0,-0.04 0,0 v 6.96 c 0,0.022 0.018,0.04 0.04,0.04 h 6 c 0.022,0 0.04,-0.018 0.04,-0.04 v -6.96 c 0,-0.04 -0.04,0 0,0 h 5.92 c 0.04,0 0,-0.04 0,0 v 6.96 c 0,0.022 0.018,0.04 0.04,0.04 h 6 c 0.022,0 0.04,-0.018 0.04,-0.04 v -6.96 c 0,-0.04 -0.04,0 0,0 h 5.92 c 0.04,0 0,-0.04 0,0 v 6.96 c 0,0.022 0.018,0.04 0.04,0.04 h 6.6 c 0.022,0 0.04,-0.018 0.04,-0.04 v -7 -5.96 c 0,-0.04 -0.04,0 0,0 h 2.96 c 0.022,0 0.04,-0.018 0.04,-0.04 v -6 c 0,-0.022 -0.018,-0.04 -0.04,-0.04 h -2.96 c -0.04,0 0,0.04 0,0 v -5.92 c 0,-0.04 -0.04,0 0,0 h 2.96 c 0.022,0 0.04,-0.018 0.04,-0.04 v -6 c 0,-0.022 -0.018,-0.04 -0.04,-0.04 h -2.96 c -0.04,0 0,0.04 0,0 v -5.96 -3 c 0,-0.022 -0.018,-0.04 -0.04,-0.04 h -55.2 c -0.022,0 -0.04,0.018 -0.04,0.04 v 3 5.96 c 0,0.04 0.04,0 0,0 h -2.96 c -0.022,0 -0.04,0.018 -0.04,0.04 v 6 c 0,0.022 0.018,0.04 0.04,0.04 h 2.96 c 0.04,0 0,-0.04 0,0 v 5.92 c 0,0.04 0.04,0 0,0 h -2.96 c -0.022,0 -0.04,0.018 -0.04,0.04 v 6 c 0,0.022 0.018,0.04 0.04,0.04 h 2.96 c 0.04,0 0,-0.04 0,0 v 5.96 7 c 0,0.022 0.018,0.04 0.04,0.04 z"
       stroke="rgb(0,0,0)"
       stroke-width="0.08"
       id="path41"
       style="stroke:#ff0000;stroke-width:0.1;stroke-miterlimit:4;stroke-dasharray:none;stroke-opacity:1" />
  </g>
  <g
     id="p-4"
     style="fill:none;stroke:#ff0000;stroke-width:0.1;stroke-linecap:round;stroke-linejoin:round;stroke-miterlimit:4;stroke-dasharray:none;stroke-opacity:1"
     transform="translate(-8.31,-101.52919)">
    <path
       d="m 19.9,171.22 h -2.96 c -0.04,0 0,0.04 0,0 v -2.92 c 0,-0.04 -0.04,0 0,0 h 5.92 c 0.04,0 0,-0.04 0,0 v 2.92 c 0,0.04 0.04,0 0,0 z"
       stroke="rgb(0,0,255)"
       stroke-width="0.08"
       id="path44"
       style="stroke:#ff0000;stroke-width:0.1;stroke-miterlimit:4;stroke-dasharray:none;stroke-opacity:1" />
    <path
       d="m 31.9,171.22 h -2.96 c -0.04,0 0,0.04 0,0 v -2.92 c 0,-0.04 -0.04,0 0,0 h 5.92 c 0.04,0 0,-0.04 0,0 v 2.92 c 0,0.04 0.04,0 0,0 z"
       stroke="rgb(0,0,255)"
       stroke-width="0.08"
       id="path46"
       style="stroke:#ff0000;stroke-width:0.1;stroke-miterlimit:4;stroke-dasharray:none;stroke-opacity:1" />
    <path
       d="m 120.9,168.3 h 2.96 c 0.04,0 0,-0.04 0,0 v 2.92 c 0,0.04 0.04,0 0,0 h -5.92 c -0.04,0 0,0.04 0,0 v -2.92 c 0,-0.04 -0.04,0 0,0 z"
       stroke="rgb(0,0,255)"
       stroke-width="0.08"
       id="path48"
       style="stroke:#ff0000;stroke-width:0.1;stroke-miterlimit:4;stroke-dasharray:none;stroke-opacity:1" />
    <path
       d="m 108.9,168.3 h 2.96 c 0.04,0 0,-0.04 0,0 v 2.92 c 0,0.04 0.04,0 0,0 h -5.92 c -0.04,0 0,0.04 0,0 v -2.92 c 0,-0.04 -0.04,0 0,0 z"
       stroke="rgb(0,0,255)"
       stroke-width="0.08"
       id="path50"
       style="stroke:#ff0000;stroke-width:0.1;stroke-miterlimit:4;stroke-dasharray:none;stroke-opacity:1" />
    <path
       d="m 13.4,202.3 h 6 c 0.022,0 0.04,-0.018 0.04,-0.04 v -6.96 c 0,-0.04 -0.04,0 0,0 h 5.92 c 0.04,0 0,-0.04 0,0 v 6.96 c 0,0.022 0.018,0.04 0.04,0.04 h 6 c 0.022,0 0.04,-0.018 0.04,-0.04 v -6.96 c 0,-0.04 -0.04,0 0,0 h 5.92 c 0.04,0 0,-0.04 0,0 v 6.96 c 0,0.022 0.018,0.04 0.04,0.04 h 6 c 0.022,0 0.04,-0.018 0.04,-0.04 v -6.96 c 0,-0.04 -0.04,0 0,0 h 5.92 c 0.04,0 0,-0.04 0,0 v 6.96 c 0,0.022 0.018,0.04 0.04,0.04 h 6 c 0.022,0 0.04,-0.018 0.04,-0.04 v -6.96 c 0,-0.04 -0.04,0 0,0 h 5.92 c 0.04,0 0,-0.04 0,0 v 6.96 c 0,0.022 0.018,0.04 0.04,0.04 h 6 c 0.022,0 0.04,-0.018 0.04,-0.04 v -6.96 c 0,-0.04 -0.04,0 0,0 h 5.92 c 0.04,0 0,-0.04 0,0 v 6.96 c 0,0.022 0.018,0.04 0.04,0.04 h 6 c 0.022,0 0.04,-0.018 0.04,-0.04 v -6.96 c 0,-0.04 -0.04,0 0,0 h 5.92 c 0.04,0 0,-0.04 0,0 v 6.96 c 0,0.022 0.018,0.04 0.04,0.04 h 6 c 0.022,0 0.04,-0.018 0.04,-0.04 v -6.96 c 0,-0.04 -0.04,0 0,0 h 5.92 c 0.04,0 0,-0.04 0,0 v 6.96 c 0,0.022 0.018,0.04 0.04,0.04 h 6 c 0.022,0 0.04,-0.018 0.04,-0.04 v -6.96 c 0,-0.04 -0.04,0 0,0 h 5.92 c 0.04,0 0,-0.04 0,0 v 6.96 c 0,0.022 0.018,0.04 0.04,0.04 h 6 c 0.022,0 0.04,-0.018 0.04,-0.04 v -6.96 c 0,-0.04 -0.04,0 0,0 h 5.92 c 0.04,0 0,-0.04 0,0 v 6.96 c 0,0.022 0.018,0.04 0.04,0.04 h 6 3 c 0.022,0 0.04,-0.018 0.04,-0.04 v -7 -6 c 0,-0.022 -0.018,-0.04 -0.04,-0.04 h -2.96 c -0.04,0 0,0.04 0,0 v -5.92 c 0,-0.04 -0.04,0 0,0 h 2.96 c 0.022,0 0.04,-0.018 0.04,-0.04 v -6 c 0,-0.022 -0.018,-0.04 -0.04,-0.04 h -2.96 c -0.04,0 0,0.04 0,0 v -5.92 c 0,-0.04 -0.04,0 0,0 h 2.96 c 0.022,0 0.04,-0.018 0.04,-0.04 v -6 -3 c 0,-0.022 -0.018,-0.04 -0.04,-0.04 h -3 -114 -3 c -0.022,0 -0.04,0.018 -0.04,0.04 v 3 6 c 0,0.022 0.018,0.04 0.04,0.04 h 2.96 c 0.04,0 0,-0.04 0,0 v 5.92 c 0,0.04 0.04,0 0,0 H 10.4 c -0.022,0 -0.04,0.018 -0.04,0.04 v 6 c 0,0.022 0.018,0.04 0.04,0.04 h 2.96 c 0.04,0 0,-0.04 0,0 v 5.92 c 0,0.04 0.04,0 0,0 H 10.4 c -0.022,0 -0.04,0.018 -0.04,0.04 v 6 7 c 0,0.022 0.018,0.04 0.04,0.04 z"
       stroke="rgb(0,0,0)"
       stroke-width="0.08"
       id="path52"
       style="stroke:#ff0000;stroke-width:0.1;stroke-miterlimit:4;stroke-dasharray:none;stroke-opacity:1" />
  </g>
  <g
     id="p-7"
     style="fill:none;stroke:#ff0000;stroke-width:0.1;stroke-linecap:round;stroke-linejoin:round;stroke-miterlimit:4;stroke-dasharray:none;stroke-opacity:1"
     transform="translate(-14.217315,-40.61)">
    <path
       d="m 26.193,89.567 c 0,0.28 -0.08,0.554 -0.231,0.789 -0.152,0.235 -0.368,0.422 -0.622,0.539 -0.255,0.116 -0.537,0.157 -0.814,0.117 -0.277,-0.04 -0.537,-0.159 -0.749,-0.342 -0.211,-0.183 -0.366,-0.423 -0.445,-0.692 -0.078,-0.269 -0.078,-0.554 0,-0.823 0.079,-0.268 0.234,-0.508 0.445,-0.692 0.212,-0.183 0.472,-0.302 0.749,-0.341 0.277,-0.04 0.559,0 0.814,0.117 0.254,0.116 0.47,0.303 0.622,0.538 0.151,0.236 0.231,0.51 0.231,0.79 z"
       stroke="rgb(0,0,255)"
       stroke-width="0.08"
       id="path61"
       style="stroke:#ff0000;stroke-width:0.1;stroke-miterlimit:4;stroke-dasharray:none;stroke-opacity:1" />
    <path
       d="m 16.4,97.94 h 114 c 0.022,0 0.04,-0.018 0.04,-0.04 V 42.7 c 0,-0.022 -0.018,-0.04 -0.04,-0.04 h -114 c -0.022,0 -0.04,0.018 -0.04,0.04 v 55.2 c 0,0.022 0.018,0.04 0.04,0.04 z"
       stroke="rgb(0,0,0)"
       stroke-width="0.08"
       id="path63"
       style="stroke:#ff0000;stroke-width:0.1;stroke-miterlimit:4;stroke-dasharray:none;stroke-opacity:1" />
    <path
       d="m 122.067,88.107 c 0.28,0 0.554,0.08 0.789,0.231 0.235,0.152 0.422,0.368 0.539,0.622 0.116,0.255 0.157,0.537 0.117,0.814 -0.04,0.277 -0.159,0.537 -0.342,0.749 -0.183,0.211 -0.423,0.366 -0.692,0.445 -0.269,0.078 -0.554,0.078 -0.823,0 -0.268,-0.079 -0.508,-0.234 -0.692,-0.445 -0.183,-0.212 -0.302,-0.472 -0.341,-0.749 -0.04,-0.277 0,-0.559 0.117,-0.814 0.116,-0.254 0.303,-0.47 0.538,-0.622 0.236,-0.151 0.51,-0.231 0.79,-0.231 z"
       stroke="rgb(0,0,255)"
       stroke-width="0.08"
       id="path65"
       style="stroke:#ff0000;stroke-width:0.1;stroke-miterlimit:4;stroke-dasharray:none;stroke-opacity:1" />
    <path
       d="m 120.607,51.033 c 0,-0.28 0.08,-0.554 0.231,-0.789 0.152,-0.235 0.368,-0.422 0.622,-0.539 0.255,-0.116 0.537,-0.157 0.814,-0.117 0.277,0.04 0.537,0.159 0.749,0.342 0.211,0.183 0.366,0.423 0.445,0.692 0.078,0.269 0.078,0.554 0,0.823 -0.079,0.268 -0.234,0.508 -0.445,0.692 -0.212,0.183 -0.472,0.302 -0.749,0.341 -0.277,0.04 -0.559,0 -0.814,-0.117 -0.254,-0.116 -0.47,-0.303 -0.622,-0.538 -0.151,-0.236 -0.231,-0.51 -0.231,-0.79 z"
       stroke="rgb(0,0,255)"
       stroke-width="0.08"
       id="path67"
       style="stroke:#ff0000;stroke-width:0.1;stroke-miterlimit:4;stroke-dasharray:none;stroke-opacity:1" />
    <path
       d="m 24.733,52.493 c -0.28,0 -0.554,-0.08 -0.789,-0.231 -0.235,-0.152 -0.422,-0.368 -0.539,-0.622 -0.116,-0.255 -0.157,-0.537 -0.117,-0.814 0.04,-0.277 0.159,-0.537 0.342,-0.749 0.183,-0.211 0.423,-0.366 0.692,-0.445 0.269,-0.078 0.554,-0.078 0.823,0 0.268,0.079 0.508,0.234 0.692,0.445 0.183,0.212 0.302,0.472 0.341,0.749 0.04,0.277 0,0.559 -0.117,0.814 -0.116,0.254 -0.303,0.47 -0.538,0.622 -0.236,0.151 -0.51,0.231 -0.79,0.231 z"
       stroke="rgb(0,0,255)"
       stroke-width="0.08"
       id="path69"
       style="stroke:#ff0000;stroke-width:0.1;stroke-miterlimit:4;stroke-dasharray:none;stroke-opacity:1" />
  </g>
  <g
     id="g1265"
     transform="translate(-8.31,-101.52919)">
    <path
       d="m 134.26196,156.67552 h 3.46 c 0.04,0 0,-0.04 0,0 v 2.96 c 0,0.022 0.018,0.04 0.04,0.04 h 6 c 0.022,0 0.04,-0.018 0.04,-0.04 v -2.96 c 0,-0.04 -0.04,0 0,0 h 5.92 c 0.04,0 0,-0.04 0,0 v 2.96 c 0,0.022 0.018,0.04 0.04,0.04 h 6 c 0.022,0 0.04,-0.018 0.04,-0.04 v -2.96 c 0,-0.04 -0.04,0 0,0 h 3.46 c 0.022,0 0.04,-0.018 0.04,-0.04 v -3.46 c 0,-0.04 -0.04,0 0,0 h 2.96 c 0.022,0 0.04,-0.018 0.04,-0.04 v -6 c 0,-0.022 -0.018,-0.04 -0.04,-0.04 h -2.96 c -0.04,0 0,0.04 0,0 v -5.92 c 0,-0.04 -0.04,0 0,0 h 2.96 c 0.022,0 0.04,-0.018 0.04,-0.04 v -6 c 0,-0.022 -0.018,-0.04 -0.04,-0.04 h -2.96 c -0.04,0 0,0.04 0,0 v -3.46 c 0,-0.022 -0.018,-0.04 -0.04,-0.04 -0.011,0 -0.021,0.004 -0.028,0.012 l -25,25 c -0.008,0.007 -0.012,0.017 -0.012,0.028 0,0.022 0.018,0.04 0.04,0.04 z"
       stroke="rgb(0,0,0)"
       stroke-width="0.08"
       id="path72"
       style="fill:none;stroke:#ff0000;stroke-width:0.1;stroke-linecap:round;stroke-linejoin:round;stroke-miterlimit:4;stroke-dasharray:none;stroke-opacity:1" />
    <path
       d="m 150.9292,146.87677 c 0.27323,0 0.54053,0.0787 0.77069,0.22574 0.22869,0.14852 0.41134,0.35793 0.52568,0.60743 0.11285,0.24803 0.15295,0.52427 0.11434,0.79457 -0.0386,0.2703 -0.15444,0.52426 -0.33412,0.7307 -0.17819,0.20643 -0.41281,0.35792 -0.67565,0.43515 -0.26284,0.0772 -0.54052,0.0772 -0.80336,0 -0.26135,-0.0772 -0.49597,-0.22872 -0.67565,-0.43515 -0.1782,-0.20644 -0.29402,-0.4604 -0.33412,-0.7307 -0.0386,-0.2703 0.001,-0.54654 0.11434,-0.79457 0.11434,-0.2495 0.29699,-0.45891 0.52716,-0.60743 0.22868,-0.14703 0.49746,-0.22574 0.77069,-0.22574 z"
       stroke="rgb(0,0,255)"
       stroke-width="0.08"
       id="path74"
       style="fill:none;stroke:#ff0000;stroke-width:0.1;stroke-linecap:round;stroke-linejoin:round;stroke-miterlimit:4;stroke-dasharray:none;stroke-opacity:1" />
  </g>
  <g
     id="g1261"
     transform="translate(-8.31,-101.52919)">
    <path
       d="m 154.79296,131.51552 h -3.46 c -0.04,0 0,0.04 0,0 v -2.96 c 0,-0.022 -0.018,-0.04 -0.04,-0.04 h -6 c -0.022,0 -0.04,0.018 -0.04,0.04 v 2.96 c 0,0.04 0.04,0 0,0 h -5.92 c -0.04,0 0,0.04 0,0 v -2.96 c 0,-0.022 -0.018,-0.04 -0.04,-0.04 h -6 c -0.022,0 -0.04,0.018 -0.04,0.04 v 2.96 c 0,0.04 0.04,0 0,0 h -3.46 c -0.022,0 -0.04,0.018 -0.04,0.04 v 3.46 c 0,0.04 0.04,0 0,0 h -2.96 c -0.022,0 -0.04,0.018 -0.04,0.04 v 6 c 0,0.022 0.018,0.04 0.04,0.04 h 2.96 c 0.04,0 0,-0.04 0,0 v 5.92 c 0,0.04 0.04,0 0,0 h -2.96 c -0.022,0 -0.04,0.018 -0.04,0.04 v 6 c 0,0.022 0.018,0.04 0.04,0.04 h 2.96 c 0.04,0 0,-0.04 0,0 v 3.46 c 0,0.022 0.018,0.04 0.04,0.04 0.011,0 0.021,-0.004 0.028,-0.012 l 25,-25 c 0.008,-0.007 0.012,-0.017 0.012,-0.028 0,-0.022 -0.018,-0.04 -0.04,-0.04 z"
       stroke="rgb(0,0,0)"
       stroke-width="0.08"
       id="path76"
       style="fill:none;stroke:#ff0000;stroke-width:0.1;stroke-linecap:round;stroke-linejoin:round;stroke-miterlimit:4;stroke-dasharray:none;stroke-opacity:1" />
    <path
       d="m 138.12572,141.31427 c -0.27323,0 -0.54053,-0.0787 -0.77069,-0.22575 -0.23017,-0.14851 -0.41134,-0.35792 -0.52568,-0.60742 -0.11285,-0.24802 -0.15295,-0.52426 -0.11434,-0.79456 0.0386,-0.2703 0.15444,-0.52426 0.33412,-0.7307 0.17819,-0.20643 0.41281,-0.35792 0.67565,-0.43514 0.26135,-0.0772 0.54052,-0.0772 0.80336,0 0.26135,0.0772 0.49597,0.22871 0.67565,0.43514 0.1782,0.20644 0.29402,0.4604 0.33412,0.7307 0.0386,0.2703 -0.001,0.54654 -0.11434,0.79456 -0.11434,0.2495 -0.29699,0.45891 -0.52716,0.60742 -0.22868,0.14703 -0.49746,0.22575 -0.77069,0.22575 z"
       stroke="rgb(0,0,255)"
       stroke-width="0.08"
       id="path78"
       style="fill:none;stroke:#ff0000;stroke-width:0.1;stroke-linecap:round;stroke-linejoin:round;stroke-miterlimit:4;stroke-dasharray:none;stroke-opacity:1" />
  </g>
  <g
     id="g1273"
     transform="rotate(-135,134.90611,94.687422)">
    <path
       d="m 171.31096,156.67552 h 3.46 c 0.04,0 0,-0.04 0,0 v 2.96 c 0,0.022 0.018,0.04 0.04,0.04 h 6 c 0.022,0 0.04,-0.018 0.04,-0.04 v -2.96 c 0,-0.04 -0.04,0 0,0 h 5.92 c 0.04,0 0,-0.04 0,0 v 2.96 c 0,0.022 0.018,0.04 0.04,0.04 h 6 c 0.022,0 0.04,-0.018 0.04,-0.04 v -2.96 c 0,-0.04 -0.04,0 0,0 h 3.46 c 0.022,0 0.04,-0.018 0.04,-0.04 v -3.46 c 0,-0.04 -0.04,0 0,0 h 2.96 c 0.022,0 0.04,-0.018 0.04,-0.04 v -6 c 0,-0.022 -0.018,-0.04 -0.04,-0.04 h -2.96 c -0.04,0 0,0.04 0,0 v -5.92 c 0,-0.04 -0.04,0 0,0 h 2.96 c 0.022,0 0.04,-0.018 0.04,-0.04 v -6 c 0,-0.022 -0.018,-0.04 -0.04,-0.04 h -2.96 c -0.04,0 0,0.04 0,0 v -3.46 c 0,-0.022 -0.018,-0.04 -0.04,-0.04 -0.011,0 -0.021,0.004 -0.028,0.012 l -25,25 c -0.008,0.007 -0.012,0.017 -0.012,0.028 0,0.022 0.018,0.04 0.04,0.04 z"
       stroke="rgb(0,0,0)"
       stroke-width="0.08"
       id="path80"
       style="fill:none;stroke:#ff0000;stroke-width:0.1;stroke-linecap:round;stroke-linejoin:round;stroke-miterlimit:4;stroke-dasharray:none;stroke-opacity:1" />
    <path
       d="m 187.97672,146.87677 c 0.27471,0 0.54201,0.0787 0.77217,0.22574 0.22869,0.14852 0.41134,0.35793 0.52568,0.60743 0.11285,0.24803 0.15295,0.52427 0.11434,0.79457 -0.0386,0.2703 -0.15444,0.52426 -0.33412,0.7307 -0.17968,0.20643 -0.41281,0.35792 -0.67565,0.43515 -0.26284,0.0772 -0.54052,0.0772 -0.80336,0 -0.26284,-0.0772 -0.49746,-0.22872 -0.67565,-0.43515 -0.17968,-0.20644 -0.29551,-0.4604 -0.33412,-0.7307 -0.0386,-0.2703 0.001,-0.54654 0.11434,-0.79457 0.11434,-0.2495 0.29699,-0.45891 0.52568,-0.60743 0.23016,-0.14703 0.49746,-0.22574 0.77069,-0.22574 z"
       stroke="rgb(0,0,255)"
       stroke-width="0.08"
       id="path82"
       style="fill:none;stroke:#ff0000;stroke-width:0.1;stroke-linecap:round;stroke-linejoin:round;stroke-miterlimit:4;stroke-dasharray:none;stroke-opacity:1" />
  </g>
  <g
     id="g1269"
     transform="rotate(135,188.98858,88.386367)">
    <path
       d="m 191.84196,131.51552 h -3.46 c -0.04,0 0,0.04 0,0 v -2.96 c 0,-0.022 -0.018,-0.04 -0.04,-0.04 h -6 c -0.022,0 -0.04,0.018 -0.04,0.04 v 2.96 c 0,0.04 0.04,0 0,0 h -5.92 c -0.04,0 0,0.04 0,0 v -2.96 c 0,-0.022 -0.018,-0.04 -0.04,-0.04 h -6 c -0.022,0 -0.04,0.018 -0.04,0.04 v 2.96 c 0,0.04 0.04,0 0,0 h -3.46 c -0.022,0 -0.04,0.018 -0.04,0.04 v 3.46 c 0,0.04 0.04,0 0,0 h -2.96 c -0.022,0 -0.04,0.018 -0.04,0.04 v 6 c 0,0.022 0.018,0.04 0.04,0.04 h 2.96 c 0.04,0 0,-0.04 0,0 v 5.92 c 0,0.04 0.04,0 0,0 h -2.96 c -0.022,0 -0.04,0.018 -0.04,0.04 v 6 c 0,0.022 0.018,0.04 0.04,0.04 h 2.96 c 0.04,0 0,-0.04 0,0 v 3.46 c 0,0.022 0.018,0.04 0.04,0.04 0.011,0 0.021,-0.004 0.028,-0.012 l 25,-25 c 0.008,-0.007 0.012,-0.017 0.012,-0.028 0,-0.022 -0.018,-0.04 -0.04,-0.04 z"
       stroke="rgb(0,0,0)"
       stroke-width="0.08"
       id="path84"
       style="fill:none;stroke:#ff0000;stroke-width:0.1;stroke-linecap:round;stroke-linejoin:round;stroke-miterlimit:4;stroke-dasharray:none;stroke-opacity:1" />
    <path
       d="m 175.17482,141.31426 c -0.27329,0 -0.54064,-0.0787 -0.77086,-0.22574 -0.23022,-0.14852 -0.41291,-0.35792 -0.52579,-0.60743 -0.11288,-0.24802 -0.15298,-0.52425 -0.11437,-0.79455 0.0386,-0.2703 0.15447,-0.52425 0.33419,-0.73069 0.17824,-0.20643 0.41291,-0.35792 0.67581,-0.43515 0.26141,-0.0772 0.54064,-0.0772 0.80354,0 0.26141,0.0772 0.49608,0.22872 0.6758,0.43515 0.17824,0.20644 0.29409,0.46039 0.33271,0.73069 0.0401,0.2703 0,0.54653 -0.11437,0.79455 -0.11288,0.24951 -0.29557,0.45891 -0.52579,0.60743 -0.23022,0.14703 -0.49757,0.22574 -0.77087,0.22574 z"
       stroke="rgb(0,0,255)"
       stroke-width="0.08"
       id="path86"
       style="fill:none;stroke:#ff0000;stroke-width:0.1;stroke-linecap:round;stroke-linejoin:round;stroke-miterlimit:4;stroke-dasharray:none;stroke-opacity:1" />
  </g>
  <ellipse
     style="fill:none;stroke:#ff0000;stroke-width:0.112778"
     id="path886"
     cx="154.27"
     cy="122.31081"
     rx="7.4436111"
     ry="3.9436111" />
</svg>
