<?xml version="1.0" encoding="UTF-8" standalone="no"?>
<!-- Created with Inkscape (http://www.inkscape.org/) -->

<svg
   width="245.75999mm"
   height="65.379997mm"
   viewBox="0 0 245.75999 65.379997"
   version="1.1"
   id="svg913"
   inkscape:version="1.1.2 (b8e25be833, 2022-02-05)"
   sodipodi:docname="Keypad Maschbau Keyholder.svg"
   xmlns:inkscape="http://www.inkscape.org/namespaces/inkscape"
   xmlns:sodipodi="http://sodipodi.sourceforge.net/DTD/sodipodi-0.dtd"
   xmlns="http://www.w3.org/2000/svg"
   xmlns:svg="http://www.w3.org/2000/svg">
  <sodipodi:namedview
     id="namedview915"
     pagecolor="#ffffff"
     bordercolor="#666666"
     borderopacity="1.0"
     inkscape:pageshadow="2"
     inkscape:pageopacity="0.0"
     inkscape:pagecheckerboard="0"
     inkscape:document-units="mm"
     showgrid="false"
     fit-margin-left="2"
     fit-margin-top="2"
     fit-margin-right="2"
     fit-margin-bottom="2"
     inkscape:zoom="1.2810466"
     inkscape:cx="556.96648"
     inkscape:cy="323.95387"
     inkscape:window-width="1920"
     inkscape:window-height="1137"
     inkscape:window-x="-8"
     inkscape:window-y="-8"
     inkscape:window-maximized="1"
     inkscape:current-layer="layer1" />
  <defs
     id="defs910" />
  <g
     inkscape:label="Ebene 1"
     inkscape:groupmode="layer"
     id="layer1"
     transform="translate(-3.5205568,-10.68274)">
    <g
       id="p-5"
       style="fill:none;stroke:#ff0000;stroke-width:0.1;stroke-linecap:round;stroke-linejoin:round;stroke-miterlimit:4;stroke-dasharray:none;stroke-opacity:1"
       transform="translate(-4.7894432,-86.70726)">
      <path
         d="m 23.44,145.68 v -11.6 c 0,-0.344 0.091,-0.682 0.263,-0.98 0.172,-0.298 0.419,-0.545 0.717,-0.717 0.298,-0.172 0.636,-0.263 0.98,-0.263 H 37 c 0.344,0 0.682,0.091 0.98,0.263 0.298,0.172 0.545,0.419 0.717,0.717 0.172,0.298 0.263,0.636 0.263,0.98 v 11.6 c 0,0.344 -0.091,0.682 -0.263,0.98 -0.172,0.298 -0.419,0.545 -0.717,0.717 -0.298,0.172 -0.636,0.263 -0.98,0.263 H 25.4 c -0.344,0 -0.682,-0.091 -0.98,-0.263 -0.298,-0.172 -0.545,-0.419 -0.717,-0.717 -0.172,-0.298 -0.263,-0.636 -0.263,-0.98 z m 0,-19.6 v -11.6 c 0,-0.344 0.091,-0.682 0.263,-0.98 0.172,-0.298 0.419,-0.545 0.717,-0.717 0.298,-0.172 0.636,-0.263 0.98,-0.263 H 37 c 0.344,0 0.682,0.091 0.98,0.263 0.298,0.172 0.545,0.419 0.717,0.717 0.172,0.298 0.263,0.636 0.263,0.98 v 11.6 c 0,0.344 -0.091,0.682 -0.263,0.98 -0.172,0.298 -0.419,0.545 -0.717,0.717 -0.298,0.172 -0.636,0.263 -0.98,0.263 H 25.4 c -0.344,0 -0.682,-0.091 -0.98,-0.263 -0.298,-0.172 -0.545,-0.419 -0.717,-0.717 -0.172,-0.298 -0.263,-0.636 -0.263,-0.98 z m 19.6,19.6 v -11.6 c 0,-0.344 0.091,-0.682 0.263,-0.98 0.172,-0.298 0.419,-0.545 0.717,-0.717 0.298,-0.172 0.636,-0.263 0.98,-0.263 h 11.6 c 0.344,0 0.682,0.091 0.98,0.263 0.298,0.172 0.545,0.419 0.717,0.717 0.172,0.298 0.263,0.636 0.263,0.98 v 11.6 c 0,0.344 -0.091,0.682 -0.263,0.98 -0.172,0.298 -0.419,0.545 -0.717,0.717 -0.298,0.172 -0.636,0.263 -0.98,0.263 H 45 c -0.344,0 -0.682,-0.091 -0.98,-0.263 -0.298,-0.172 -0.545,-0.419 -0.717,-0.717 -0.172,-0.298 -0.263,-0.636 -0.263,-0.98 z m 0,-19.6 v -11.6 c 0,-0.344 0.091,-0.682 0.263,-0.98 0.172,-0.298 0.419,-0.545 0.717,-0.717 0.298,-0.172 0.636,-0.263 0.98,-0.263 h 11.6 c 0.344,0 0.682,0.091 0.98,0.263 0.298,0.172 0.545,0.419 0.717,0.717 0.172,0.298 0.263,0.636 0.263,0.98 v 11.6 c 0,0.344 -0.091,0.682 -0.263,0.98 -0.172,0.298 -0.419,0.545 -0.717,0.717 -0.298,0.172 -0.636,0.263 -0.98,0.263 H 45 c -0.344,0 -0.682,-0.091 -0.98,-0.263 -0.298,-0.172 -0.545,-0.419 -0.717,-0.717 -0.172,-0.298 -0.263,-0.636 -0.263,-0.98 z m 19.6,19.6 v -11.6 c 0,-0.344 0.091,-0.682 0.263,-0.98 0.172,-0.298 0.419,-0.545 0.717,-0.717 0.298,-0.172 0.636,-0.263 0.98,-0.263 h 11.6 c 0.344,0 0.682,0.091 0.98,0.263 0.298,0.172 0.545,0.419 0.717,0.717 0.172,0.298 0.263,0.636 0.263,0.98 v 11.6 c 0,0.344 -0.091,0.682 -0.263,0.98 -0.172,0.298 -0.419,0.545 -0.717,0.717 -0.298,0.172 -0.636,0.263 -0.98,0.263 H 64.6 c -0.344,0 -0.682,-0.091 -0.98,-0.263 -0.298,-0.172 -0.545,-0.419 -0.717,-0.717 -0.172,-0.298 -0.263,-0.636 -0.263,-0.98 z m 0,-19.6 v -11.6 c 0,-0.344 0.091,-0.682 0.263,-0.98 0.172,-0.298 0.419,-0.545 0.717,-0.717 0.298,-0.172 0.636,-0.263 0.98,-0.263 h 11.6 c 0.344,0 0.682,0.091 0.98,0.263 0.298,0.172 0.545,0.419 0.717,0.717 0.172,0.298 0.263,0.636 0.263,0.98 v 11.6 c 0,0.344 -0.091,0.682 -0.263,0.98 -0.172,0.298 -0.419,0.545 -0.717,0.717 -0.298,0.172 -0.636,0.263 -0.98,0.263 H 64.6 c -0.344,0 -0.682,-0.091 -0.98,-0.263 -0.298,-0.172 -0.545,-0.419 -0.717,-0.717 -0.172,-0.298 -0.263,-0.636 -0.263,-0.98 z m 19.6,19.6 v -11.6 c 0,-0.344 0.091,-0.682 0.263,-0.98 0.172,-0.298 0.419,-0.545 0.717,-0.717 0.298,-0.172 0.636,-0.263 0.98,-0.263 h 11.6 c 0.344,0 0.682,0.091 0.98,0.263 0.298,0.172 0.545,0.419 0.717,0.717 0.172,0.298 0.263,0.636 0.263,0.98 v 11.6 c 0,0.344 -0.091,0.682 -0.263,0.98 -0.172,0.298 -0.419,0.545 -0.717,0.717 -0.298,0.172 -0.636,0.263 -0.98,0.263 H 84.2 c -0.344,0 -0.682,-0.091 -0.98,-0.263 -0.298,-0.172 -0.545,-0.419 -0.717,-0.717 -0.172,-0.298 -0.263,-0.636 -0.263,-0.98 z m 0,-19.6 v -11.6 c 0,-0.344 0.091,-0.682 0.263,-0.98 0.172,-0.298 0.419,-0.545 0.717,-0.717 0.298,-0.172 0.636,-0.263 0.98,-0.263 h 11.6 c 0.344,0 0.682,0.091 0.98,0.263 0.298,0.172 0.545,0.419 0.717,0.717 0.172,0.298 0.263,0.636 0.263,0.98 v 11.6 c 0,0.344 -0.091,0.682 -0.263,0.98 -0.172,0.298 -0.419,0.545 -0.717,0.717 -0.298,0.172 -0.636,0.263 -0.98,0.263 H 84.2 c -0.344,0 -0.682,-0.091 -0.98,-0.263 -0.298,-0.172 -0.545,-0.419 -0.717,-0.717 -0.172,-0.298 -0.263,-0.636 -0.263,-0.98 z m 19.6,19.6 v -11.6 c 0,-0.344 0.091,-0.682 0.263,-0.98 0.172,-0.298 0.419,-0.545 0.717,-0.717 0.298,-0.172 0.636,-0.263 0.98,-0.263 h 11.6 c 0.344,0 0.682,0.091 0.98,0.263 0.298,0.172 0.545,0.419 0.717,0.717 0.172,0.298 0.263,0.636 0.263,0.98 v 11.6 c 0,0.344 -0.091,0.682 -0.263,0.98 -0.172,0.298 -0.419,0.545 -0.717,0.717 -0.298,0.172 -0.636,0.263 -0.98,0.263 h -11.6 c -0.344,0 -0.682,-0.091 -0.98,-0.263 -0.298,-0.172 -0.545,-0.419 -0.717,-0.717 -0.172,-0.298 -0.263,-0.636 -0.263,-0.98 z m 0,-19.6 v -11.6 c 0,-0.344 0.091,-0.682 0.263,-0.98 0.172,-0.298 0.419,-0.545 0.717,-0.717 0.298,-0.172 0.636,-0.263 0.98,-0.263 h 11.6 c 0.344,0 0.682,0.091 0.98,0.263 0.298,0.172 0.545,0.419 0.717,0.717 0.172,0.298 0.263,0.636 0.263,0.98 v 11.6 c 0,0.344 -0.091,0.682 -0.263,0.98 -0.172,0.298 -0.419,0.545 -0.717,0.717 -0.298,0.172 -0.636,0.263 -0.98,0.263 h -11.6 c -0.344,0 -0.682,-0.091 -0.98,-0.263 -0.298,-0.172 -0.545,-0.419 -0.717,-0.717 -0.172,-0.298 -0.263,-0.636 -0.263,-0.98 z M 13.4,157.72 h 5.96 c 0.04,0 0,-0.04 0,0 v 2.96 c 0,0.022 0.018,0.04 0.04,0.04 h 6 c 0.022,0 0.04,-0.018 0.04,-0.04 v -2.96 c 0,-0.04 -0.04,0 0,0 h 5.92 c 0.04,0 0,-0.04 0,0 v 2.96 c 0,0.022 0.018,0.04 0.04,0.04 h 6 c 0.022,0 0.04,-0.018 0.04,-0.04 v -2.96 c 0,-0.04 -0.04,0 0,0 h 5.92 c 0.04,0 0,-0.04 0,0 v 2.96 c 0,0.022 0.018,0.04 0.04,0.04 h 6 c 0.022,0 0.04,-0.018 0.04,-0.04 v -2.96 c 0,-0.04 -0.04,0 0,0 h 5.92 c 0.04,0 0,-0.04 0,0 v 2.96 c 0,0.022 0.018,0.04 0.04,0.04 h 6 c 0.022,0 0.04,-0.018 0.04,-0.04 v -2.96 c 0,-0.04 -0.04,0 0,0 h 5.92 c 0.04,0 0,-0.04 0,0 v 2.96 c 0,0.022 0.018,0.04 0.04,0.04 h 6 c 0.022,0 0.04,-0.018 0.04,-0.04 v -2.96 c 0,-0.04 -0.04,0 0,0 h 5.92 c 0.04,0 0,-0.04 0,0 v 2.96 c 0,0.022 0.018,0.04 0.04,0.04 h 6 c 0.022,0 0.04,-0.018 0.04,-0.04 v -2.96 c 0,-0.04 -0.04,0 0,0 h 5.92 c 0.04,0 0,-0.04 0,0 v 2.96 c 0,0.022 0.018,0.04 0.04,0.04 h 6 c 0.022,0 0.04,-0.018 0.04,-0.04 v -2.96 c 0,-0.04 -0.04,0 0,0 h 5.92 c 0.04,0 0,-0.04 0,0 v 2.96 c 0,0.022 0.018,0.04 0.04,0.04 h 6 c 0.022,0 0.04,-0.018 0.04,-0.04 v -2.96 c 0,-0.04 -0.04,0 0,0 h 5.92 c 0.04,0 0,-0.04 0,0 v 2.96 c 0,0.022 0.018,0.04 0.04,0.04 h 6 c 0.022,0 0.04,-0.018 0.04,-0.04 v -2.96 c 0,-0.04 -0.04,0 0,0 h 5.96 c 0.022,0 0.04,-0.018 0.04,-0.04 v -6.56 c 0,-0.04 -0.04,0 0,0 h 2.96 c 0.022,0 0.04,-0.018 0.04,-0.04 v -6 c 0,-0.022 -0.018,-0.04 -0.04,-0.04 h -2.96 c -0.04,0 0,0.04 0,0 v -5.92 c 0,-0.04 -0.04,0 0,0 h 2.96 c 0.022,0 0.04,-0.018 0.04,-0.04 v -6 c 0,-0.022 -0.018,-0.04 -0.04,-0.04 h -2.96 c -0.04,0 0,0.04 0,0 v -5.92 c 0,-0.04 -0.04,0 0,0 h 2.96 c 0.022,0 0.04,-0.018 0.04,-0.04 v -6 c 0,-0.022 -0.018,-0.04 -0.04,-0.04 h -2.96 c -0.04,0 0,0.04 0,0 v -5.92 c 0,-0.04 -0.04,0 0,0 h 2.96 c 0.022,0 0.04,-0.018 0.04,-0.04 v -6 c 0,-0.022 -0.018,-0.04 -0.04,-0.04 h -2.96 c -0.04,0 0,0.04 0,0 v -6.56 c 0,-0.022 -0.018,-0.04 -0.04,-0.04 h -5.96 c -0.04,0 0,0.04 0,0 v -2.96 c 0,-0.022 -0.018,-0.04 -0.04,-0.04 h -6 c -0.022,0 -0.04,0.018 -0.04,0.04 v 2.96 c 0,0.04 0.04,0 0,0 h -5.92 c -0.04,0 0,0.04 0,0 v -2.96 c 0,-0.022 -0.018,-0.04 -0.04,-0.04 h -6 c -0.022,0 -0.04,0.018 -0.04,0.04 v 2.96 c 0,0.04 0.04,0 0,0 h -5.92 c -0.04,0 0,0.04 0,0 v -2.96 c 0,-0.022 -0.018,-0.04 -0.04,-0.04 h -6 c -0.022,0 -0.04,0.018 -0.04,0.04 v 2.96 c 0,0.04 0.04,0 0,0 h -5.92 c -0.04,0 0,0.04 0,0 v -2.96 c 0,-0.022 -0.018,-0.04 -0.04,-0.04 h -6 c -0.022,0 -0.04,0.018 -0.04,0.04 v 2.96 c 0,0.04 0.04,0 0,0 h -5.92 c -0.04,0 0,0.04 0,0 v -2.96 c 0,-0.022 -0.018,-0.04 -0.04,-0.04 h -6 c -0.022,0 -0.04,0.018 -0.04,0.04 v 2.96 c 0,0.04 0.04,0 0,0 h -5.92 c -0.04,0 0,0.04 0,0 v -2.96 c 0,-0.022 -0.018,-0.04 -0.04,-0.04 h -6 c -0.022,0 -0.04,0.018 -0.04,0.04 v 2.96 c 0,0.04 0.04,0 0,0 h -5.92 c -0.04,0 0,0.04 0,0 v -2.96 c 0,-0.022 -0.018,-0.04 -0.04,-0.04 h -6 c -0.022,0 -0.04,0.018 -0.04,0.04 v 2.96 c 0,0.04 0.04,0 0,0 h -5.92 c -0.04,0 0,0.04 0,0 v -2.96 c 0,-0.022 -0.018,-0.04 -0.04,-0.04 h -6 c -0.022,0 -0.04,0.018 -0.04,0.04 v 2.96 c 0,0.04 0.04,0 0,0 h -5.92 c -0.04,0 0,0.04 0,0 v -2.96 c 0,-0.022 -0.018,-0.04 -0.04,-0.04 h -6 c -0.022,0 -0.04,0.018 -0.04,0.04 v 2.96 c 0,0.04 0.04,0 0,0 H 13.4 c -0.022,0 -0.04,0.018 -0.04,0.04 v 6.56 c 0,0.04 0.04,0 0,0 H 10.4 c -0.022,0 -0.04,0.018 -0.04,0.04 v 6 c 0,0.022 0.018,0.04 0.04,0.04 h 2.96 c 0.04,0 0,-0.04 0,0 v 5.92 c 0,0.04 0.04,0 0,0 H 10.4 c -0.022,0 -0.04,0.018 -0.04,0.04 v 6 c 0,0.022 0.018,0.04 0.04,0.04 h 2.96 c 0.04,0 0,-0.04 0,0 v 5.92 c 0,0.04 0.04,0 0,0 H 10.4 c -0.022,0 -0.04,0.018 -0.04,0.04 v 6 c 0,0.022 0.018,0.04 0.04,0.04 h 2.96 c 0.04,0 0,-0.04 0,0 v 5.92 c 0,0.04 0.04,0 0,0 H 10.4 c -0.022,0 -0.04,0.018 -0.04,0.04 v 6 c 0,0.022 0.018,0.04 0.04,0.04 h 2.96 c 0.04,0 0,-0.04 0,0 v 6.56 c 0,0.022 0.018,0.04 0.04,0.04 z"
         stroke="rgb(0,0,0)"
         stroke-width="0.08"
         id="path55"
         style="stroke:#ff0000;stroke-width:0.1;stroke-miterlimit:4;stroke-dasharray:none;stroke-opacity:1" />
    </g>
    <g
       id="p-6"
       style="fill:none;stroke:#ff0000;stroke-width:0.1;stroke-linecap:round;stroke-linejoin:round;stroke-miterlimit:4;stroke-dasharray:none;stroke-opacity:1"
       transform="translate(-4.7894432,-86.70726)">
      <path
         d="m 145.83,146.87 v -0.98 c 0,-0.022 -0.018,-0.04 -0.04,-0.04 h -0.77 c -0.04,0 0,0.04 0,0 v -3.42 c 0,-0.04 -0.04,0 0,0 h 0.77 c 0.022,0 0.04,-0.018 0.04,-0.04 v -2.505 -2.505 c 0,-0.022 -0.018,-0.04 -0.04,-0.04 h -0.77 c -0.04,0 0,0.04 0,0 v -3.42 c 0,-0.04 -0.04,0 0,0 h 0.77 c 0.022,0 0.04,-0.018 0.04,-0.04 v -0.94 c 0,-0.04 -0.04,0 0,0 h 0.94 c 0.022,0 0.04,-0.018 0.04,-0.04 v -0.77 c 0,-0.04 -0.04,0 0,0 h 3.42 c 0.04,0 0,-0.04 0,0 v 0.77 c 0,0.022 0.018,0.04 0.04,0.04 h 2.505 2.505 c 0.022,0 0.04,-0.018 0.04,-0.04 v -0.77 c 0,-0.04 -0.04,0 0,0 h 3.42 c 0.04,0 0,-0.04 0,0 v 0.77 c 0,0.022 0.018,0.04 0.04,0.04 h 0.94 c 0.04,0 0,-0.04 0,0 v 0.94 c 0,0.022 0.018,0.04 0.04,0.04 h 0.77 c 0.04,0 0,-0.04 0,0 v 3.42 c 0,0.04 0.04,0 0,0 h -0.77 c -0.022,0 -0.04,0.018 -0.04,0.04 v 2.505 2.505 c 0,0.022 0.018,0.04 0.04,0.04 h 0.77 c 0.04,0 0,-0.04 0,0 v 3.42 c 0,0.04 0.04,0 0,0 h -0.77 c -0.022,0 -0.04,0.018 -0.04,0.04 v 0.94 c 0,0.04 0.04,0 0,0 h -0.94 c -0.022,0 -0.04,0.018 -0.04,0.04 v 0.77 c 0,0.04 0.04,0 0,0 h -3.42 c -0.04,0 0,0.04 0,0 v -0.77 c 0,-0.022 -0.018,-0.04 -0.04,-0.04 h -2.505 -2.505 c -0.022,0 -0.04,0.018 -0.04,0.04 v 0.77 c 0,0.04 0.04,0 0,0 h -3.42 c -0.04,0 0,0.04 0,0 v -0.77 c 0,-0.022 -0.018,-0.04 -0.04,-0.04 h -0.98 c 0.022,0 0.04,0.018 0.04,0.04 z m 0,-19.6 v -0.98 c 0,-0.022 -0.018,-0.04 -0.04,-0.04 h -0.77 c -0.04,0 0,0.04 0,0 v -3.42 c 0,-0.04 -0.04,0 0,0 h 0.77 c 0.022,0 0.04,-0.018 0.04,-0.04 v -2.505 -2.505 c 0,-0.022 -0.018,-0.04 -0.04,-0.04 h -0.77 c -0.04,0 0,0.04 0,0 v -3.42 c 0,-0.04 -0.04,0 0,0 h 0.77 c 0.022,0 0.04,-0.018 0.04,-0.04 v -0.94 c 0,-0.04 -0.04,0 0,0 h 0.94 c 0.022,0 0.04,-0.018 0.04,-0.04 v -0.77 c 0,-0.04 -0.04,0 0,0 h 3.42 c 0.04,0 0,-0.04 0,0 v 0.77 c 0,0.022 0.018,0.04 0.04,0.04 h 2.505 2.505 c 0.022,0 0.04,-0.018 0.04,-0.04 v -0.77 c 0,-0.04 -0.04,0 0,0 h 3.42 c 0.04,0 0,-0.04 0,0 v 0.77 c 0,0.022 0.018,0.04 0.04,0.04 h 0.94 c 0.04,0 0,-0.04 0,0 v 0.94 c 0,0.022 0.018,0.04 0.04,0.04 h 0.77 c 0.04,0 0,-0.04 0,0 v 3.42 c 0,0.04 0.04,0 0,0 h -0.77 c -0.022,0 -0.04,0.018 -0.04,0.04 v 2.505 2.505 c 0,0.022 0.018,0.04 0.04,0.04 h 0.77 c 0.04,0 0,-0.04 0,0 v 3.42 c 0,0.04 0.04,0 0,0 h -0.77 c -0.022,0 -0.04,0.018 -0.04,0.04 v 0.94 c 0,0.04 0.04,0 0,0 h -0.94 c -0.022,0 -0.04,0.018 -0.04,0.04 v 0.77 c 0,0.04 0.04,0 0,0 h -3.42 c -0.04,0 0,0.04 0,0 v -0.77 c 0,-0.022 -0.018,-0.04 -0.04,-0.04 h -2.505 -2.505 c -0.022,0 -0.04,0.018 -0.04,0.04 v 0.77 c 0,0.04 0.04,0 0,0 h -3.42 c -0.04,0 0,0.04 0,0 v -0.77 c 0,-0.022 -0.018,-0.04 -0.04,-0.04 h -0.98 c 0.022,0 0.04,0.018 0.04,0.04 z m 19.6,19.6 v -0.98 c 0,-0.022 -0.018,-0.04 -0.04,-0.04 h -0.77 c -0.04,0 0,0.04 0,0 v -3.42 c 0,-0.04 -0.04,0 0,0 h 0.77 c 0.022,0 0.04,-0.018 0.04,-0.04 v -2.505 -2.505 c 0,-0.022 -0.018,-0.04 -0.04,-0.04 h -0.77 c -0.04,0 0,0.04 0,0 v -3.42 c 0,-0.04 -0.04,0 0,0 h 0.77 c 0.022,0 0.04,-0.018 0.04,-0.04 v -0.94 c 0,-0.04 -0.04,0 0,0 h 0.94 c 0.022,0 0.04,-0.018 0.04,-0.04 v -0.77 c 0,-0.04 -0.04,0 0,0 h 3.42 c 0.04,0 0,-0.04 0,0 v 0.77 c 0,0.022 0.018,0.04 0.04,0.04 h 2.505 2.505 c 0.022,0 0.04,-0.018 0.04,-0.04 v -0.77 c 0,-0.04 -0.04,0 0,0 h 3.42 c 0.04,0 0,-0.04 0,0 v 0.77 c 0,0.022 0.018,0.04 0.04,0.04 h 0.94 c 0.04,0 0,-0.04 0,0 v 0.94 c 0,0.022 0.018,0.04 0.04,0.04 h 0.77 c 0.04,0 0,-0.04 0,0 v 3.42 c 0,0.04 0.04,0 0,0 h -0.77 c -0.022,0 -0.04,0.018 -0.04,0.04 v 2.505 2.505 c 0,0.022 0.018,0.04 0.04,0.04 h 0.77 c 0.04,0 0,-0.04 0,0 v 3.42 c 0,0.04 0.04,0 0,0 h -0.77 c -0.022,0 -0.04,0.018 -0.04,0.04 v 0.94 c 0,0.04 0.04,0 0,0 h -0.94 c -0.022,0 -0.04,0.018 -0.04,0.04 v 0.77 c 0,0.04 0.04,0 0,0 h -3.42 c -0.04,0 0,0.04 0,0 v -0.77 c 0,-0.022 -0.018,-0.04 -0.04,-0.04 h -2.505 -2.505 c -0.022,0 -0.04,0.018 -0.04,0.04 v 0.77 c 0,0.04 0.04,0 0,0 h -3.42 c -0.04,0 0,0.04 0,0 v -0.77 c 0,-0.022 -0.018,-0.04 -0.04,-0.04 h -0.98 c 0.022,0 0.04,0.018 0.04,0.04 z m 0,-19.6 v -0.98 c 0,-0.022 -0.018,-0.04 -0.04,-0.04 h -0.77 c -0.04,0 0,0.04 0,0 v -3.42 c 0,-0.04 -0.04,0 0,0 h 0.77 c 0.022,0 0.04,-0.018 0.04,-0.04 v -2.505 -2.505 c 0,-0.022 -0.018,-0.04 -0.04,-0.04 h -0.77 c -0.04,0 0,0.04 0,0 v -3.42 c 0,-0.04 -0.04,0 0,0 h 0.77 c 0.022,0 0.04,-0.018 0.04,-0.04 v -0.94 c 0,-0.04 -0.04,0 0,0 h 0.94 c 0.022,0 0.04,-0.018 0.04,-0.04 v -0.77 c 0,-0.04 -0.04,0 0,0 h 3.42 c 0.04,0 0,-0.04 0,0 v 0.77 c 0,0.022 0.018,0.04 0.04,0.04 h 2.505 2.505 c 0.022,0 0.04,-0.018 0.04,-0.04 v -0.77 c 0,-0.04 -0.04,0 0,0 h 3.42 c 0.04,0 0,-0.04 0,0 v 0.77 c 0,0.022 0.018,0.04 0.04,0.04 h 0.94 c 0.04,0 0,-0.04 0,0 v 0.94 c 0,0.022 0.018,0.04 0.04,0.04 h 0.77 c 0.04,0 0,-0.04 0,0 v 3.42 c 0,0.04 0.04,0 0,0 h -0.77 c -0.022,0 -0.04,0.018 -0.04,0.04 v 2.505 2.505 c 0,0.022 0.018,0.04 0.04,0.04 h 0.77 c 0.04,0 0,-0.04 0,0 v 3.42 c 0,0.04 0.04,0 0,0 h -0.77 c -0.022,0 -0.04,0.018 -0.04,0.04 v 0.94 c 0,0.04 0.04,0 0,0 h -0.94 c -0.022,0 -0.04,0.018 -0.04,0.04 v 0.77 c 0,0.04 0.04,0 0,0 h -3.42 c -0.04,0 0,0.04 0,0 v -0.77 c 0,-0.022 -0.018,-0.04 -0.04,-0.04 h -2.505 -2.505 c -0.022,0 -0.04,0.018 -0.04,0.04 v 0.77 c 0,0.04 0.04,0 0,0 h -3.42 c -0.04,0 0,0.04 0,0 v -0.77 c 0,-0.022 -0.018,-0.04 -0.04,-0.04 h -0.98 c 0.022,0 0.04,0.018 0.04,0.04 z m 19.6,19.6 v -0.98 c 0,-0.022 -0.018,-0.04 -0.04,-0.04 h -0.77 c -0.04,0 0,0.04 0,0 v -3.42 c 0,-0.04 -0.04,0 0,0 h 0.77 c 0.022,0 0.04,-0.018 0.04,-0.04 v -2.505 -2.505 c 0,-0.022 -0.018,-0.04 -0.04,-0.04 h -0.77 c -0.04,0 0,0.04 0,0 v -3.42 c 0,-0.04 -0.04,0 0,0 h 0.77 c 0.022,0 0.04,-0.018 0.04,-0.04 v -0.94 c 0,-0.04 -0.04,0 0,0 h 0.94 c 0.022,0 0.04,-0.018 0.04,-0.04 v -0.77 c 0,-0.04 -0.04,0 0,0 h 3.42 c 0.04,0 0,-0.04 0,0 v 0.77 c 0,0.022 0.018,0.04 0.04,0.04 h 2.505 2.505 c 0.022,0 0.04,-0.018 0.04,-0.04 v -0.77 c 0,-0.04 -0.04,0 0,0 h 3.42 c 0.04,0 0,-0.04 0,0 v 0.77 c 0,0.022 0.018,0.04 0.04,0.04 h 0.94 c 0.04,0 0,-0.04 0,0 v 0.94 c 0,0.022 0.018,0.04 0.04,0.04 h 0.77 c 0.04,0 0,-0.04 0,0 v 3.42 c 0,0.04 0.04,0 0,0 h -0.77 c -0.022,0 -0.04,0.018 -0.04,0.04 v 2.505 2.505 c 0,0.022 0.018,0.04 0.04,0.04 h 0.77 c 0.04,0 0,-0.04 0,0 v 3.42 c 0,0.04 0.04,0 0,0 h -0.77 c -0.022,0 -0.04,0.018 -0.04,0.04 v 0.94 c 0,0.04 0.04,0 0,0 h -0.94 c -0.022,0 -0.04,0.018 -0.04,0.04 v 0.77 c 0,0.04 0.04,0 0,0 h -3.42 c -0.04,0 0,0.04 0,0 v -0.77 c 0,-0.022 -0.018,-0.04 -0.04,-0.04 h -2.505 -2.505 c -0.022,0 -0.04,0.018 -0.04,0.04 v 0.77 c 0,0.04 0.04,0 0,0 h -3.42 c -0.04,0 0,0.04 0,0 v -0.77 c 0,-0.022 -0.018,-0.04 -0.04,-0.04 h -0.98 c 0.022,0 0.04,0.018 0.04,0.04 z m 0,-19.6 v -0.98 c 0,-0.022 -0.018,-0.04 -0.04,-0.04 h -0.77 c -0.04,0 0,0.04 0,0 v -3.42 c 0,-0.04 -0.04,0 0,0 h 0.77 c 0.022,0 0.04,-0.018 0.04,-0.04 v -2.505 -2.505 c 0,-0.022 -0.018,-0.04 -0.04,-0.04 h -0.77 c -0.04,0 0,0.04 0,0 v -3.42 c 0,-0.04 -0.04,0 0,0 h 0.77 c 0.022,0 0.04,-0.018 0.04,-0.04 v -0.94 c 0,-0.04 -0.04,0 0,0 h 0.94 c 0.022,0 0.04,-0.018 0.04,-0.04 v -0.77 c 0,-0.04 -0.04,0 0,0 h 3.42 c 0.04,0 0,-0.04 0,0 v 0.77 c 0,0.022 0.018,0.04 0.04,0.04 h 2.505 2.505 c 0.022,0 0.04,-0.018 0.04,-0.04 v -0.77 c 0,-0.04 -0.04,0 0,0 h 3.42 c 0.04,0 0,-0.04 0,0 v 0.77 c 0,0.022 0.018,0.04 0.04,0.04 h 0.94 c 0.04,0 0,-0.04 0,0 v 0.94 c 0,0.022 0.018,0.04 0.04,0.04 h 0.77 c 0.04,0 0,-0.04 0,0 v 3.42 c 0,0.04 0.04,0 0,0 h -0.77 c -0.022,0 -0.04,0.018 -0.04,0.04 v 2.505 2.505 c 0,0.022 0.018,0.04 0.04,0.04 h 0.77 c 0.04,0 0,-0.04 0,0 v 3.42 c 0,0.04 0.04,0 0,0 h -0.77 c -0.022,0 -0.04,0.018 -0.04,0.04 v 0.94 c 0,0.04 0.04,0 0,0 h -0.94 c -0.022,0 -0.04,0.018 -0.04,0.04 v 0.77 c 0,0.04 0.04,0 0,0 h -3.42 c -0.04,0 0,0.04 0,0 v -0.77 c 0,-0.022 -0.018,-0.04 -0.04,-0.04 h -2.505 -2.505 c -0.022,0 -0.04,0.018 -0.04,0.04 v 0.77 c 0,0.04 0.04,0 0,0 h -3.42 c -0.04,0 0,0.04 0,0 v -0.77 c 0,-0.022 -0.018,-0.04 -0.04,-0.04 h -0.98 c 0.022,0 0.04,0.018 0.04,0.04 z m 19.6,19.6 v -0.98 c 0,-0.022 -0.018,-0.04 -0.04,-0.04 h -0.77 c -0.04,0 0,0.04 0,0 v -3.42 c 0,-0.04 -0.04,0 0,0 h 0.77 c 0.022,0 0.04,-0.018 0.04,-0.04 v -2.505 -2.505 c 0,-0.022 -0.018,-0.04 -0.04,-0.04 h -0.77 c -0.04,0 0,0.04 0,0 v -3.42 c 0,-0.04 -0.04,0 0,0 h 0.77 c 0.022,0 0.04,-0.018 0.04,-0.04 v -0.94 c 0,-0.04 -0.04,0 0,0 h 0.94 c 0.022,0 0.04,-0.018 0.04,-0.04 v -0.77 c 0,-0.04 -0.04,0 0,0 h 3.42 c 0.04,0 0,-0.04 0,0 v 0.77 c 0,0.022 0.018,0.04 0.04,0.04 h 2.505 2.505 c 0.022,0 0.04,-0.018 0.04,-0.04 v -0.77 c 0,-0.04 -0.04,0 0,0 h 3.42 c 0.04,0 0,-0.04 0,0 v 0.77 c 0,0.022 0.018,0.04 0.04,0.04 h 0.94 c 0.04,0 0,-0.04 0,0 v 0.94 c 0,0.022 0.018,0.04 0.04,0.04 h 0.77 c 0.04,0 0,-0.04 0,0 v 3.42 c 0,0.04 0.04,0 0,0 h -0.77 c -0.022,0 -0.04,0.018 -0.04,0.04 v 2.505 2.505 c 0,0.022 0.018,0.04 0.04,0.04 h 0.77 c 0.04,0 0,-0.04 0,0 v 3.42 c 0,0.04 0.04,0 0,0 h -0.77 c -0.022,0 -0.04,0.018 -0.04,0.04 v 0.94 c 0,0.04 0.04,0 0,0 h -0.94 c -0.022,0 -0.04,0.018 -0.04,0.04 v 0.77 c 0,0.04 0.04,0 0,0 h -3.42 c -0.04,0 0,0.04 0,0 v -0.77 c 0,-0.022 -0.018,-0.04 -0.04,-0.04 h -2.505 -2.505 c -0.022,0 -0.04,0.018 -0.04,0.04 v 0.77 c 0,0.04 0.04,0 0,0 h -3.42 c -0.04,0 0,0.04 0,0 v -0.77 c 0,-0.022 -0.018,-0.04 -0.04,-0.04 h -0.98 c 0.022,0 0.04,0.018 0.04,0.04 z m 0,-19.6 v -0.98 c 0,-0.022 -0.018,-0.04 -0.04,-0.04 h -0.77 c -0.04,0 0,0.04 0,0 v -3.42 c 0,-0.04 -0.04,0 0,0 h 0.77 c 0.022,0 0.04,-0.018 0.04,-0.04 v -2.505 -2.505 c 0,-0.022 -0.018,-0.04 -0.04,-0.04 h -0.77 c -0.04,0 0,0.04 0,0 v -3.42 c 0,-0.04 -0.04,0 0,0 h 0.77 c 0.022,0 0.04,-0.018 0.04,-0.04 v -0.94 c 0,-0.04 -0.04,0 0,0 h 0.94 c 0.022,0 0.04,-0.018 0.04,-0.04 v -0.77 c 0,-0.04 -0.04,0 0,0 h 3.42 c 0.04,0 0,-0.04 0,0 v 0.77 c 0,0.022 0.018,0.04 0.04,0.04 h 2.505 2.505 c 0.022,0 0.04,-0.018 0.04,-0.04 v -0.77 c 0,-0.04 -0.04,0 0,0 h 3.42 c 0.04,0 0,-0.04 0,0 v 0.77 c 0,0.022 0.018,0.04 0.04,0.04 h 0.94 c 0.04,0 0,-0.04 0,0 v 0.94 c 0,0.022 0.018,0.04 0.04,0.04 h 0.77 c 0.04,0 0,-0.04 0,0 v 3.42 c 0,0.04 0.04,0 0,0 h -0.77 c -0.022,0 -0.04,0.018 -0.04,0.04 v 2.505 2.505 c 0,0.022 0.018,0.04 0.04,0.04 h 0.77 c 0.04,0 0,-0.04 0,0 v 3.42 c 0,0.04 0.04,0 0,0 h -0.77 c -0.022,0 -0.04,0.018 -0.04,0.04 v 0.94 c 0,0.04 0.04,0 0,0 h -0.94 c -0.022,0 -0.04,0.018 -0.04,0.04 v 0.77 c 0,0.04 0.04,0 0,0 h -3.42 c -0.04,0 0,0.04 0,0 v -0.77 c 0,-0.022 -0.018,-0.04 -0.04,-0.04 h -2.505 -2.505 c -0.022,0 -0.04,0.018 -0.04,0.04 v 0.77 c 0,0.04 0.04,0 0,0 h -3.42 c -0.04,0 0,0.04 0,0 v -0.77 c 0,-0.022 -0.018,-0.04 -0.04,-0.04 h -0.98 c 0.022,0 0.04,0.018 0.04,0.04 z m 19.6,19.6 v -0.98 c 0,-0.022 -0.018,-0.04 -0.04,-0.04 h -0.77 c -0.04,0 0,0.04 0,0 v -3.42 c 0,-0.04 -0.04,0 0,0 h 0.77 c 0.022,0 0.04,-0.018 0.04,-0.04 v -2.505 -2.505 c 0,-0.022 -0.018,-0.04 -0.04,-0.04 h -0.77 c -0.04,0 0,0.04 0,0 v -3.42 c 0,-0.04 -0.04,0 0,0 h 0.77 c 0.022,0 0.04,-0.018 0.04,-0.04 v -0.94 c 0,-0.04 -0.04,0 0,0 h 0.94 c 0.022,0 0.04,-0.018 0.04,-0.04 v -0.77 c 0,-0.04 -0.04,0 0,0 h 3.42 c 0.04,0 0,-0.04 0,0 v 0.77 c 0,0.022 0.018,0.04 0.04,0.04 h 2.505 2.505 c 0.022,0 0.04,-0.018 0.04,-0.04 v -0.77 c 0,-0.04 -0.04,0 0,0 h 3.42 c 0.04,0 0,-0.04 0,0 v 0.77 c 0,0.022 0.018,0.04 0.04,0.04 h 0.94 c 0.04,0 0,-0.04 0,0 v 0.94 c 0,0.022 0.018,0.04 0.04,0.04 h 0.77 c 0.04,0 0,-0.04 0,0 v 3.42 c 0,0.04 0.04,0 0,0 h -0.77 c -0.022,0 -0.04,0.018 -0.04,0.04 v 2.505 2.505 c 0,0.022 0.018,0.04 0.04,0.04 h 0.77 c 0.04,0 0,-0.04 0,0 v 3.42 c 0,0.04 0.04,0 0,0 h -0.77 c -0.022,0 -0.04,0.018 -0.04,0.04 v 0.94 c 0,0.04 0.04,0 0,0 h -0.94 c -0.022,0 -0.04,0.018 -0.04,0.04 v 0.77 c 0,0.04 0.04,0 0,0 h -3.42 c -0.04,0 0,0.04 0,0 v -0.77 c 0,-0.022 -0.018,-0.04 -0.04,-0.04 h -2.505 -2.505 c -0.022,0 -0.04,0.018 -0.04,0.04 v 0.77 c 0,0.04 0.04,0 0,0 h -3.42 c -0.04,0 0,0.04 0,0 v -0.77 c 0,-0.022 -0.018,-0.04 -0.04,-0.04 h -0.98 c 0.022,0 0.04,0.018 0.04,0.04 z m 0,-19.6 v -0.98 c 0,-0.022 -0.018,-0.04 -0.04,-0.04 h -0.77 c -0.04,0 0,0.04 0,0 v -3.42 c 0,-0.04 -0.04,0 0,0 h 0.77 c 0.022,0 0.04,-0.018 0.04,-0.04 v -2.505 -2.505 c 0,-0.022 -0.018,-0.04 -0.04,-0.04 h -0.77 c -0.04,0 0,0.04 0,0 v -3.42 c 0,-0.04 -0.04,0 0,0 h 0.77 c 0.022,0 0.04,-0.018 0.04,-0.04 v -0.94 c 0,-0.04 -0.04,0 0,0 h 0.94 c 0.022,0 0.04,-0.018 0.04,-0.04 v -0.77 c 0,-0.04 -0.04,0 0,0 h 3.42 c 0.04,0 0,-0.04 0,0 v 0.77 c 0,0.022 0.018,0.04 0.04,0.04 h 2.505 2.505 c 0.022,0 0.04,-0.018 0.04,-0.04 v -0.77 c 0,-0.04 -0.04,0 0,0 h 3.42 c 0.04,0 0,-0.04 0,0 v 0.77 c 0,0.022 0.018,0.04 0.04,0.04 h 0.94 c 0.04,0 0,-0.04 0,0 v 0.94 c 0,0.022 0.018,0.04 0.04,0.04 h 0.77 c 0.04,0 0,-0.04 0,0 v 3.42 c 0,0.04 0.04,0 0,0 h -0.77 c -0.022,0 -0.04,0.018 -0.04,0.04 v 2.505 2.505 c 0,0.022 0.018,0.04 0.04,0.04 h 0.77 c 0.04,0 0,-0.04 0,0 v 3.42 c 0,0.04 0.04,0 0,0 h -0.77 c -0.022,0 -0.04,0.018 -0.04,0.04 v 0.94 c 0,0.04 0.04,0 0,0 h -0.94 c -0.022,0 -0.04,0.018 -0.04,0.04 v 0.77 c 0,0.04 0.04,0 0,0 h -3.42 c -0.04,0 0,0.04 0,0 v -0.77 c 0,-0.022 -0.018,-0.04 -0.04,-0.04 h -2.505 -2.505 c -0.022,0 -0.04,0.018 -0.04,0.04 v 0.77 c 0,0.04 0.04,0 0,0 h -3.42 c -0.04,0 0,0.04 0,0 v -0.77 c 0,-0.022 -0.018,-0.04 -0.04,-0.04 h -0.98 c 0.022,0 0.04,0.018 0.04,0.04 z m -89.25,30.45 h 5.96 c 0.04,0 0,-0.04 0,0 v 2.96 c 0,0.022 0.018,0.04 0.04,0.04 h 6 c 0.022,0 0.04,-0.018 0.04,-0.04 v -2.96 c 0,-0.04 -0.04,0 0,0 h 5.92 c 0.04,0 0,-0.04 0,0 v 2.96 c 0,0.022 0.018,0.04 0.04,0.04 h 6 c 0.022,0 0.04,-0.018 0.04,-0.04 v -2.96 c 0,-0.04 -0.04,0 0,0 h 5.92 c 0.04,0 0,-0.04 0,0 v 2.96 c 0,0.022 0.018,0.04 0.04,0.04 h 6 c 0.022,0 0.04,-0.018 0.04,-0.04 v -2.96 c 0,-0.04 -0.04,0 0,0 h 5.92 c 0.04,0 0,-0.04 0,0 v 2.96 c 0,0.022 0.018,0.04 0.04,0.04 h 6 c 0.022,0 0.04,-0.018 0.04,-0.04 v -2.96 c 0,-0.04 -0.04,0 0,0 h 5.92 c 0.04,0 0,-0.04 0,0 v 2.96 c 0,0.022 0.018,0.04 0.04,0.04 h 6 c 0.022,0 0.04,-0.018 0.04,-0.04 v -2.96 c 0,-0.04 -0.04,0 0,0 h 5.92 c 0.04,0 0,-0.04 0,0 v 2.96 c 0,0.022 0.018,0.04 0.04,0.04 h 6 c 0.022,0 0.04,-0.018 0.04,-0.04 v -2.96 c 0,-0.04 -0.04,0 0,0 h 5.92 c 0.04,0 0,-0.04 0,0 v 2.96 c 0,0.022 0.018,0.04 0.04,0.04 h 6 c 0.022,0 0.04,-0.018 0.04,-0.04 v -2.96 c 0,-0.04 -0.04,0 0,0 h 5.92 c 0.04,0 0,-0.04 0,0 v 2.96 c 0,0.022 0.018,0.04 0.04,0.04 h 6 c 0.022,0 0.04,-0.018 0.04,-0.04 v -2.96 c 0,-0.04 -0.04,0 0,0 h 5.92 c 0.04,0 0,-0.04 0,0 v 2.96 c 0,0.022 0.018,0.04 0.04,0.04 h 6 c 0.022,0 0.04,-0.018 0.04,-0.04 v -2.96 c 0,-0.04 -0.04,0 0,0 h 5.96 c 0.022,0 0.04,-0.018 0.04,-0.04 v -6.56 c 0,-0.04 -0.04,0 0,0 h 2.96 c 0.022,0 0.04,-0.018 0.04,-0.04 v -6 c 0,-0.022 -0.018,-0.04 -0.04,-0.04 h -2.96 c -0.04,0 0,0.04 0,0 v -5.92 c 0,-0.04 -0.04,0 0,0 h 2.96 c 0.022,0 0.04,-0.018 0.04,-0.04 v -6 c 0,-0.022 -0.018,-0.04 -0.04,-0.04 h -2.96 c -0.04,0 0,0.04 0,0 v -5.92 c 0,-0.04 -0.04,0 0,0 h 2.96 c 0.022,0 0.04,-0.018 0.04,-0.04 v -6 c 0,-0.022 -0.018,-0.04 -0.04,-0.04 h -2.96 c -0.04,0 0,0.04 0,0 v -5.92 c 0,-0.04 -0.04,0 0,0 h 2.96 c 0.022,0 0.04,-0.018 0.04,-0.04 v -6 c 0,-0.022 -0.018,-0.04 -0.04,-0.04 h -2.96 c -0.04,0 0,0.04 0,0 v -6.56 c 0,-0.022 -0.018,-0.04 -0.04,-0.04 h -5.96 c -0.04,0 0,0.04 0,0 v -2.96 c 0,-0.022 -0.018,-0.04 -0.04,-0.04 h -6 c -0.022,0 -0.04,0.018 -0.04,0.04 v 2.96 c 0,0.04 0.04,0 0,0 h -5.92 c -0.04,0 0,0.04 0,0 v -2.96 c 0,-0.022 -0.018,-0.04 -0.04,-0.04 h -6 c -0.022,0 -0.04,0.018 -0.04,0.04 v 2.96 c 0,0.04 0.04,0 0,0 h -5.92 c -0.04,0 0,0.04 0,0 v -2.96 c 0,-0.022 -0.018,-0.04 -0.04,-0.04 h -6 c -0.022,0 -0.04,0.018 -0.04,0.04 v 2.96 c 0,0.04 0.04,0 0,0 h -5.92 c -0.04,0 0,0.04 0,0 v -2.96 c 0,-0.022 -0.018,-0.04 -0.04,-0.04 h -6 c -0.022,0 -0.04,0.018 -0.04,0.04 v 2.96 c 0,0.04 0.04,0 0,0 h -5.92 c -0.04,0 0,0.04 0,0 v -2.96 c 0,-0.022 -0.018,-0.04 -0.04,-0.04 h -6 c -0.022,0 -0.04,0.018 -0.04,0.04 v 2.96 c 0,0.04 0.04,0 0,0 h -5.92 c -0.04,0 0,0.04 0,0 v -2.96 c 0,-0.022 -0.018,-0.04 -0.04,-0.04 h -6 c -0.022,0 -0.04,0.018 -0.04,0.04 v 2.96 c 0,0.04 0.04,0 0,0 h -5.92 c -0.04,0 0,0.04 0,0 v -2.96 c 0,-0.022 -0.018,-0.04 -0.04,-0.04 h -6 c -0.022,0 -0.04,0.018 -0.04,0.04 v 2.96 c 0,0.04 0.04,0 0,0 h -5.92 c -0.04,0 0,0.04 0,0 v -2.96 c 0,-0.022 -0.018,-0.04 -0.04,-0.04 h -6 c -0.022,0 -0.04,0.018 -0.04,0.04 v 2.96 c 0,0.04 0.04,0 0,0 h -5.92 c -0.04,0 0,0.04 0,0 v -2.96 c 0,-0.022 -0.018,-0.04 -0.04,-0.04 h -6 c -0.022,0 -0.04,0.018 -0.04,0.04 v 2.96 c 0,0.04 0.04,0 0,0 h -5.96 c -0.022,0 -0.04,0.018 -0.04,0.04 v 6.56 c 0,0.04 0.04,0 0,0 h -2.96 c -0.022,0 -0.04,0.018 -0.04,0.04 v 6 c 0,0.022 0.018,0.04 0.04,0.04 h 2.96 c 0.04,0 0,-0.04 0,0 v 5.92 c 0,0.04 0.04,0 0,0 h -2.96 c -0.022,0 -0.04,0.018 -0.04,0.04 v 6 c 0,0.022 0.018,0.04 0.04,0.04 h 2.96 c 0.04,0 0,-0.04 0,0 v 5.92 c 0,0.04 0.04,0 0,0 h -2.96 c -0.022,0 -0.04,0.018 -0.04,0.04 v 6 c 0,0.022 0.018,0.04 0.04,0.04 h 2.96 c 0.04,0 0,-0.04 0,0 v 5.92 c 0,0.04 0.04,0 0,0 h -2.96 c -0.022,0 -0.04,0.018 -0.04,0.04 v 6 c 0,0.022 0.018,0.04 0.04,0.04 h 2.96 c 0.04,0 0,-0.04 0,0 v 6.56 c 0,0.022 0.018,0.04 0.04,0.04 z"
         stroke="rgb(0,0,0)"
         stroke-width="0.08"
         id="path58"
         style="stroke:#ff0000;stroke-width:0.1;stroke-miterlimit:4;stroke-dasharray:none;stroke-opacity:1" />
    </g>
  </g>
</svg>
